<?xml version="1.0" encoding="utf-8"?>
<svg version="1.1" 
	xmlns="http://www.w3.org/2000/svg" 
	height="340" 
	width="340" 
	style="background-color:#F6F7F7;">
  
  <!-- Bg Circle -->
  <circle cx="170" cy="170" r="162" fill="#068C70" stroke="#FFFFFF" stroke-width="15"/>

  <!-- Chimney -->
  <rect height="21" width="14" fill="#FBF6A7" x="98" y="127"/>
  <rect height="4" width="20" fill="#E04E27" x="95" y="123"/>

  <!-- House -->
  <rect height="84" width="162" fill="#FBF6A7" x="90" y="198"/>
  <rect height="56" width="184" fill="#E04E27" x="80" y="148"/>

  <!-- Door -->
  <rect height="60" width="36" fill="#E04E27" x="153" y="222"/>

  <!-- Flowers -->
    <g class="flower">
      <line x1="228" y1="267" x2="228" y2="282"/>
      <circle class="flower-outer" cx="228" cy="267" r="6"/>
      <circle class="flower-inner" cx="231" cy="266" r="2"/>
    </g>
    <g class="flower" transform="translate(-22, 0)">
      <line x1="228" y1="267" x2="228" y2="282"/>
      <circle class="flower-outer" cx="228" cy="267" r="6"/>
      <circle class="flower-inner" cx="231" cy="266" r="2"/>
    </g>
    <g class="flower" transform="translate(-93, 0)">
      <line x1="228" y1="267" x2="228" y2="282"/>
      <circle class="flower-outer" cx="228" cy="267" r="6"/>
      <circle class="flower-inner" cx="231" cy="266" r="2"/>
    </g>
    <g class="flower" transform="translate(-120, 0)">
      <line x1="228" y1="267" x2="228" y2="282"/>
      <circle class="flower-outer" cx="228" cy="267" r="6"/>
      <circle class="flower-inner" cx="231" cy="266" r="2"/>
    </g>

  <!-- TEXT -->
  <text x="85" y="97" 
  	    font-size="70" fill="#3E9FD8" 
  	    stroke="#FFFFFF" stroke-width="2" 
  	    font-family="Filmotype Major">
  	    HOME</text>
  
</svg>